# xmcd CD database file
#
# Track frame offsets:
#	150
#	15157
#	47160
#	59142
#	96172
#	107967
#	131302
#	141765
#	154465
#	170077
#	193735
#	208572
#
# Disc length: 3019 seconds
#
# Revision: 0
# Processed by: cddbd v1.5.1PL0 Copyright (c) Steve Scherf et al.
# Submitted via: CDex 1.51
#
DISCID=ae0bc90c
DTITLE=Neil Young - Chrome Dreams
DYEAR=1900
DGENRE=Rock and Roll
TTITLE0=Pocahontas
TTITLE1=Will To Love
TTITLE2=Star Of Bethlehem
TTITLE3=Like A Hurricane
TTITLE4=Too Far Gone
TTITLE5=Hold Back The Tears
TTITLE6=Homegrown
TTITLE7=Captain Kennedy
TTITLE8=Stringman
TTITLE9=Sedan Delivery
TTITLE10=Powderfinger
TTITLE11=Look Out For My Love
EXTD=
EXTT0=
EXTT1=
EXTT2=
EXTT3=
EXTT4=
EXTT5=
EXTT6=
EXTT7=
EXTT8=
EXTT9=
EXTT10=
EXTT11=
PLAYORDER=
